<?xml version="1.0" encoding="iso-8859-1"?>
<!-- Generator: Adobe Illustrator 18.0.0, SVG Export Plug-In . SVG Version: 6.00 Build 0)  -->
<!DOCTYPE svg PUBLIC "-//W3C//DTD SVG 1.1//EN" "http://www.w3.org/Graphics/SVG/1.1/DTD/svg11.dtd">
<svg version="1.1" id="Capa_1" xmlns="http://www.w3.org/2000/svg" xmlns:xlink="http://www.w3.org/1999/xlink" x="0px" y="0px"
	 viewBox="0 0 460 460" style="enable-background:new 0 0 460 460;" xml:space="preserve">
<path id="XMLID_1112_" d="M415,215v-60c0-8.284-6.716-15-15-15h-58.787L443.241,37.972l-21.213-21.213L298.787,140H60
	c-8.284,0-15,6.716-15,15v60H0v30h45v60c0,8.284,6.716,15,15,15h58.787L16.759,422.028l21.213,21.213L161.213,320H400
	c8.284,0,15-6.716,15-15v-60h45v-30H415z M148.787,290H75V170h193.787L148.787,290z M385,290H191.213l120-120H385V290z"/>
<g>
</g>
<g>
</g>
<g>
</g>
<g>
</g>
<g>
</g>
<g>
</g>
<g>
</g>
<g>
</g>
<g>
</g>
<g>
</g>
<g>
</g>
<g>
</g>
<g>
</g>
<g>
</g>
<g>
</g>
</svg>
