<svg height="512" viewBox="0 0 128 128" width="512" xmlns="http://www.w3.org/2000/svg"><g><g><g fill="#ff9800"><path d="m34.822 91.5h6v10.875h-6z"/><path d="m12.947 91.5h6v10.875h-6z"/></g><path d="m39.5 112.5h13.288v6h-13.288z" fill="#ff9800"/><path d="m59.491 79.875h74.25v9h-74.25z" fill="#eaeaf0" transform="matrix(0 1 -1 0 180.991 -12.241)"/><path d="m84.146 109.5h24.94v8h-24.94z" fill="#0e8bce"/><path d="m90.616 50.096h12v28.086h-12z" fill="#0e8bce"/><path d="m121.5 24.19-5.99 10-1.94 3.25-4.94 8.26-1.95 3.24-4.94 8.25-1.94 3.25-4.94 8.26-1.94 3.24-5.84 9.75h-60.2l5.99-10.01 1.94-3.24 4.95-8.25 1.94-3.25 4.94-8.26 1.95-3.24 4.94-8.25 1.94-3.25 5.84-9.75z" fill="#3ba9fd"/><circle cx="23" cy="23" fill="#fdd82e" r="12"/><path d="m6.981 97.5h39.808v24h-39.808z" fill="#fdd82e"/><path d="m76.712 115.5h39.808v6h-39.808z" fill="#eaeaf0"/></g><g fill="#051720"><path d="m102.87 79.9a1.744 1.744 0 0 0 1.5-1.724v-21.964l18.63-31.121a1.75 1.75 0 0 0 -1.5-2.649h-47a1.75 1.75 0 0 0 0 3.5h3.625l-4.789 8h-15.826l4.79-8h4.033a1.75 1.75 0 0 0 0-3.5h-5.025a1.751 1.751 0 0 0 -1.5.852l-34.423 57.5a1.749 1.749 0 0 0 1.5 2.648h60.192a1.749 1.749 0 0 0 1.5-.851l1.623-2.716c.055.013.11.021.166.029v21.716h-26.366a1.75 1.75 0 0 0 -1.75 1.75v10.5h-7.71v-1.37a1.75 1.75 0 0 0 -1.75-1.75h-4.252v-13.25a1.75 1.75 0 0 0 -1.75-1.75h-4.218v-4.25a1.75 1.75 0 0 0 -1.75-1.75h-6a1.75 1.75 0 0 0 -1.75 1.75v4.25h-12.37v-4.25a1.749 1.749 0 0 0 -1.75-1.75h-6a1.75 1.75 0 0 0 -1.75 1.75v4.25h-4.22a1.75 1.75 0 0 0 -1.75 1.75v24a1.75 1.75 0 0 0 1.75 1.75h39.808a1.75 1.75 0 0 0 1.75-1.75v-1.25h4.252a1.75 1.75 0 0 0 1.75-1.75v-1.13h9.46a1.75 1.75 0 0 0 1.75-1.75v-10.5h24.62v2.63h-6.224a1.749 1.749 0 0 0 -1.75 1.75v4.25h-5.684a1.75 1.75 0 0 0 -1.75 1.75v6a1.75 1.75 0 0 0 1.75 1.75h7.434a1.75 1.75 0 1 0 0-3.5h-5.684v-2.5h36.308v2.5h-21.77a1.75 1.75 0 0 0 0 3.5h23.52a1.75 1.75 0 0 0 1.75-1.75v-6a1.75 1.75 0 0 0 -1.75-1.75h-5.685v-4.25a1.749 1.749 0 0 0 -1.75-1.75h-6.215v-6.375a1.75 1.75 0 0 0 -3.5 0v6.375h-5.5v-27.82h5.5v3.97a1.75 1.75 0 0 0 3.5 0zm-66.3 13.35h2.5v2.5h-2.5zm-21.87 0h2.5v2.5h-2.5zm30.338 26.5h-36.308v-20.5h36.308zm6-3h-2.5v-2.5h2.5zm56.295-3h-21.433v-2.5h21.439zm-6.463-37.32h-8.5v-.173l8.5-14.2zm-50.994 3.512 4.789-8h15.825l-4.789 8zm-8.23-19.5h15.825l-4.789 8h-15.826zm6.884-11.5h15.826l-4.79 8h-15.825zm58.209-3.5h-16.306l4.79-8h16.305zm-2.1 3.5-4.789 8h-16.3l4.789-8zm-25.173 8h-15.821l4.789-8h15.825zm-22.71 11.5 4.79-8h15.829l-4.79 8zm24.693-8h16.31l-4.79 8h-16.3zm32.17-26.5h-16.301l4.789-8h16.306zm-31.419-8h15.829l-4.79 8h-15.825zm-6.885 11.5h15.829l-4.789 8h-15.825zm-4.079 0-4.789 8h-15.821l4.789-8zm-36.479 34.5h15.829l-4.789 8h-15.825zm51.323 8h-16.301l4.79-8h16.3z"/><path d="m101.12 88.125a1.75 1.75 0 0 0 -1.75 1.75v4.375a1.75 1.75 0 0 0 3.5 0v-4.375a1.75 1.75 0 0 0 -1.75-1.75z"/><path d="m6.5 24.75h2.874a13.651 13.651 0 0 0 2.757 6.639l-2.041 2.041a1.754 1.754 0 0 0 2.48 2.48l2.041-2.041a13.651 13.651 0 0 0 6.639 2.757v2.874a1.75 1.75 0 0 0 3.5 0v-2.874a13.651 13.651 0 0 0 6.639-2.757l2.041 2.041a1.754 1.754 0 1 0 2.48-2.48l-2.041-2.041a13.651 13.651 0 0 0 2.757-6.639h2.874a1.75 1.75 0 0 0 0-3.5h-2.874a13.651 13.651 0 0 0 -2.757-6.639l2.041-2.041a1.754 1.754 0 1 0 -2.48-2.48l-2.041 2.04a13.66 13.66 0 0 0 -6.639-2.756v-2.874a1.75 1.75 0 0 0 -3.5 0v2.874a13.66 13.66 0 0 0 -6.639 2.756l-2.041-2.04a1.754 1.754 0 0 0 -2.48 2.48l2.041 2.041a13.651 13.651 0 0 0 -2.757 6.639h-2.874a1.75 1.75 0 0 0 0 3.5zm16.5-12a10.25 10.25 0 1 1 -10.25 10.25 10.261 10.261 0 0 1 10.25-10.25z"/><path d="m12.98 106a1.75 1.75 0 0 0 -1.75 1.75v6.25a1.75 1.75 0 0 0 3.5 0v-6.25a1.749 1.749 0 0 0 -1.75-1.75z"/><path d="m29.008 107.75h-1.788l1.318-3.8a1.75 1.75 0 0 0 -3.307-1.146l-2.123 6.125a1.749 1.749 0 0 0 1.653 2.323h1.788l-1.318 3.8a1.749 1.749 0 0 0 1.08 2.226 1.716 1.716 0 0 0 .573.1 1.751 1.751 0 0 0 1.654-1.177l2.123-6.125a1.749 1.749 0 0 0 -1.653-2.323z"/></g></g></svg>